<?xml version="1.0" encoding="UTF-8" standalone="no"?>
<!-- Created with Inkscape (http://www.inkscape.org/) -->

<svg
   width="173.62952mm"
   height="167.85042mm"
   viewBox="0 0 173.62952 167.85043"
   version="1.1"
   id="svg2083"
   inkscape:version="1.3 (0e150ed6c4, 2023-07-21)"
   sodipodi:docname="rain.svg"
   inkscape:export-filename="D:\Peti\Fresh\emojis\sad.png"
   inkscape:export-xdpi="1195"
   inkscape:export-ydpi="1195"
   xml:space="preserve"
   xmlns:inkscape="http://www.inkscape.org/namespaces/inkscape"
   xmlns:sodipodi="http://sodipodi.sourceforge.net/DTD/sodipodi-0.dtd"
   xmlns="http://www.w3.org/2000/svg"
   xmlns:svg="http://www.w3.org/2000/svg"
   xmlns:rdf="http://www.w3.org/1999/02/22-rdf-syntax-ns#"
   xmlns:cc="http://creativecommons.org/ns#"
   xmlns:dc="http://purl.org/dc/elements/1.1/"><defs
     id="defs2077" /><sodipodi:namedview
     id="base"
     pagecolor="#ffffff"
     bordercolor="#666666"
     borderopacity="1.0"
     inkscape:pageopacity="0.0"
     inkscape:pageshadow="2"
     inkscape:zoom="0.71980918"
     inkscape:cx="157.68068"
     inkscape:cy="228.53279"
     inkscape:document-units="mm"
     inkscape:current-layer="layer15"
     showgrid="false"
     inkscape:window-width="1536"
     inkscape:window-height="801"
     inkscape:window-x="1912"
     inkscape:window-y="-8"
     inkscape:window-maximized="1"
     fit-margin-top="0"
     fit-margin-left="0"
     fit-margin-right="0"
     fit-margin-bottom="0"
     inkscape:showpageshadow="2"
     inkscape:pagecheckerboard="0"
     inkscape:deskcolor="#d1d1d1" /><metadata
     id="metadata2080"><rdf:RDF><cc:Work
         rdf:about=""><dc:format>image/svg+xml</dc:format><dc:type
           rdf:resource="http://purl.org/dc/dcmitype/StillImage" /></cc:Work></rdf:RDF></metadata><g
     inkscape:groupmode="layer"
     id="layer15"
     inkscape:label="face"
     style="opacity:1"
     transform="translate(-41.363295,-30.311)"><path
       style="fill:#000000;fill-opacity:1;stroke:#ffffff;stroke-width:4;stroke-linecap:butt;stroke-linejoin:miter;stroke-miterlimit:4;stroke-dasharray:none;stroke-opacity:1"
       d="m 73.705357,126.34375 c 0,0 -8.882441,-41.955357 -31.372024,-54.428572 0,0 37.419643,4.346727 57.452381,36.474702 0,0 15.308036,-2.83482 21.544646,0 0,0 3.02381,-8.88244 -1.88988,-14.174106 0,0 18.52083,6.236606 23.24553,27.592266 0,0 7.37054,6.2366 15.875,2.07886 0,0 -0.56696,3.2128 -6.61458,5.48066 0,0 0.37797,2.07887 2.83482,2.26786 0,0 13.79613,3.21279 19.0878,-11.52828 0,0 20.5997,14.74107 12.85119,39.49851 l -8.69345,15.875 -1.51191,1.88989 c 0,0 -4.34673,13.60714 -9.4494,18.52083 0,0 -37.60863,-12.09524 -82.020837,-5.48066 0,0 -11.339286,-9.63839 -15.686012,-19.27678 0,0 4.157738,-4.7247 6.803571,-7.18155 0,0 -8.126488,2.83482 -8.88244,4.7247 0,0 -7.181548,-11.71726 -7.748512,-17.00893 0,0 6.425595,-5.66964 13.607143,-7.18154 0,0 -11.339286,-0.75596 -17.008929,1.88988 0,0 -8.504464,-20.22173 -4.535714,-30.42709 0,0 7.559523,12.28423 22.111607,10.39435 z"
       id="path2641"
       inkscape:connector-curvature="0" /></g><g
     inkscape:groupmode="layer"
     id="layer1"
     inkscape:label="cloud"
     style="display:inline"
     transform="translate(-2.3601899e-7,-0.25900899)"><path
       style="fill:#5dadec;fill-opacity:1;stroke-width:0.264583"
       d="m 90.96999,68.227492 -0.129958,11.046357 c 0,0 -0.909701,4.418541 -5.718114,4.158628 -4.808413,-0.259916 -5.588156,-5.848072 -4.808413,-7.147642 0.779743,-1.299572 1.169615,-2.339229 2.989014,-3.638801 1.819399,-1.29957 7.667471,-4.418542 7.667471,-4.418542 z"
       id="path1" /><path
       style="fill:#5dadec;fill-opacity:1;stroke-width:0.264583"
       d="m 104.74454,80.010778 -0.12996,11.046357 c 0,0 -0.9097,4.418541 -5.718107,4.158628 -4.808412,-0.259916 -5.588162,-5.848072 -4.808412,-7.147642 0.77974,-1.299572 1.16961,-2.339229 2.98901,-3.638801 1.819402,-1.29957 7.667469,-4.418542 7.667469,-4.418542 z"
       id="path1-9" /><path
       style="fill:#5dadec;fill-opacity:1;stroke-width:0.264583"
       d="m 136.1467,82.953878 -0.12995,11.046357 c 0,0 -0.9097,4.418541 -5.71812,4.158628 -4.80841,-0.259916 -5.58816,-5.848072 -4.80841,-7.147642 0.77974,-1.299572 1.16961,-2.339229 2.98901,-3.638801 1.8194,-1.29957 7.66747,-4.418542 7.66747,-4.418542 z"
       id="path1-7" /><path
       style="fill:#5dadec;fill-opacity:1;stroke-width:0.264583"
       d="m 122.72298,70.933232 -0.12996,11.046357 c 0,0 -0.9097,4.418537 -5.71811,4.158627 -4.80841,-0.25991 -5.58816,-5.848071 -4.80841,-7.147641 0.77974,-1.299572 1.16961,-2.339229 2.98901,-3.638801 1.8194,-1.29957 7.66747,-4.418542 7.66747,-4.418542 z"
       id="path1-3" /><path
       style="fill:#5dadec;fill-opacity:1;stroke-width:0.264583"
       d="m 109.3265,59.630076 -0.12996,11.046357 c 0,0 -0.9097,4.418541 -5.71811,4.158628 -4.808416,-0.259916 -5.588156,-5.848072 -4.808416,-7.147642 0.77975,-1.299572 1.16962,-2.339229 2.989016,-3.638801 1.8194,-1.29957 7.66747,-4.418542 7.66747,-4.418542 z"
       id="path1-2" /><path
       style="fill:#5dadec;fill-opacity:1;stroke-width:0.264583"
       d="m 138.56763,59.644077 -0.12996,11.04636 c 0,0 -0.9097,4.41854 -5.71811,4.15862 -4.80841,-0.25991 -5.58816,-5.84807 -4.80841,-7.14764 0.77974,-1.29957 1.16961,-2.33923 2.98901,-3.6388 1.8194,-1.29957 7.66747,-4.41854 7.66747,-4.41854 z"
       id="path1-6" /><path
       style="fill:#5dadec;fill-opacity:1;stroke-width:0.264583"
       d="M 155.15856,67.612713 155.0286,78.65907 c 0,0 -0.9097,4.418541 -5.71811,4.158628 -4.80841,-0.259916 -5.58816,-5.848072 -4.80841,-7.147642 0.77974,-1.299572 1.16961,-2.339229 2.98901,-3.638801 1.8194,-1.29957 7.66747,-4.418542 7.66747,-4.418542 z"
       id="path1-0" /><path
       style="fill:#d2d2d2;fill-opacity:1;stroke-width:0.264583"
       d="m 87.721061,54.971865 69.786979,0.129958 c 0,0 16.50455,-6.887729 16.11468,-21.832798 -0.38987,-14.94507 -10.52653,-19.623527 -10.52653,-19.623527 0,0 -4.15862,-3.248928 -17.28429,-1.819399 0,0 -3.37889,-11.43622761 -16.50456,-11.56618474 C 116.18167,0.12995713 113.0627,14.03537 113.0627,14.03537 c 0,0 -8.1873,-6.7577708 -16.244639,0.649786 0,0 -5.458199,5.978028 -1.949357,13.905412 0,0 -13.255627,-4.418542 -17.284298,11.436228 0,0 -2.079316,11.826097 10.136655,14.945069 z"
       id="path2" /></g><g
     inkscape:groupmode="layer"
     id="layer18"
     inkscape:label="mouth"
     transform="translate(-41.363295,-30.311)"><path
       style="fill:none;stroke:#ffffff;stroke-width:4;stroke-linecap:butt;stroke-linejoin:miter;stroke-miterlimit:4;stroke-dasharray:none;stroke-opacity:1"
       d="m 178.02679,175.48065 c 0,0 -0.24545,-11.6867 -1.41506,-16.88499 0,0 -17.02438,1.16962 -25.47159,4.80842 0,0 -4.41855,4.02867 -5.84807,7.66747 0,0 -4.41855,-10.0067 -7.2776,-10.9164 0,0 -14.03537,-5.84807 -25.34164,5.4582"
       id="path2656"
       inkscape:connector-curvature="0" /></g><g
     inkscape:groupmode="layer"
     id="layer16"
     inkscape:label="eye"
     transform="translate(-41.363295,-30.311)"><path
       style="fill:#ffffff;fill-opacity:1;stroke:#ffffff;stroke-width:2;stroke-linecap:butt;stroke-linejoin:miter;stroke-miterlimit:4;stroke-dasharray:none;stroke-opacity:1"
       d="m 130.2128,135.0372 c 0,0 1.70089,-8.88244 -3.02381,-13.41815 0,0 -16.25298,2.45684 -21.35566,10.58333 0,0 6.04762,-2.26786 7.37054,-2.07887 0,0 -5.48066,5.48066 -7.37054,12.28423 0,0 15.87501,-14.3631 24.37947,-7.37054 z"
       id="path2644"
       inkscape:connector-curvature="0" /></g></svg>
